<?xml version="1.0" encoding="utf-8"?>
<!-- Generator: Adobe Illustrator 25.0.0, SVG Export Plug-In . SVG Version: 6.00 Build 0)  -->
<svg version="1.1" id="Layer_1" xmlns="http://www.w3.org/2000/svg" xmlns:xlink="http://www.w3.org/1999/xlink" x="0px" y="0px"
	 viewBox="0 0 1415 406.8" style="enable-background:new 0 0 1415 406.8;" xml:space="preserve">
<path d="M542,168.7c-13.3,53.8-60.3,89.5-115.7,89.5c-71.8,0-120.6-56.9-120.6-118.5c0-58.2,45.2-117.8,120-117.8
	c71.8,0,110.1,55.1,116.3,90.8h-61.2C474.3,95.8,456.9,73,425.4,73c-39.3,0-61.2,34.2-61.2,66.5c0,34.5,23.5,67.7,61.6,67.7
	c36.5,0,51.4-30.5,55.1-38.5H542z"/>
<path d="M640.3,77.9c62.2,0,92.1,48.9,92.1,90.7c0,41.8-29.9,90.7-92.1,90.7c-62.2,0-92.1-48.9-92.1-90.7
	C548.2,126.8,578.1,77.9,640.3,77.9 M640.3,211.7c22.2,0,40.9-18.1,40.9-43c0-24.9-18.8-43-40.9-43c-22.2,0-40.9,18.1-40.9,43
	C599.3,193.5,618.1,211.7,640.3,211.7"/>
<path d="M898.9,254.8h-48.5l0.4-20.3h-0.6c-10.5,21.8-31.5,23.6-44.5,23.6c-10.5,0-35.2-2.5-50.4-21.5
	c-13.6-16.9-15.4-29.2-15.4-52.5V82.3h51.3v94.2c0,11.7,0,34.1,27.5,34.1c14.8,0,29.3-7.7,29.3-34.7V82.3h51.3L898.9,254.8z"/>
<rect x="1035.3" y="82.1" width="51.6" height="172.7"/>
<path d="M1060.8,7.5c17,0,30.6,13.9,30.6,30.9c0,17-13.6,30.9-30.6,30.9c-16.3,0-29.9-13.9-29.9-30.9
	C1030.9,21.4,1044.5,7.5,1060.8,7.5"/>
<path d="M1336.9,254.9H1282V82.1h54.9V254.9z M1372.7,79c20.2,0,35.8,14.9,35.8,34.4c0,19.1-15.5,34.1-35.8,34.1
	c-19.9,0-35.4-14.9-35.4-34.1C1337.3,93.9,1352.8,79,1372.7,79"/>
<path d="M1269.8,201c-8.4,19.3-20.5,34.2-35.1,44.2c-14.3,10.3-31.4,15.5-49.1,15.5c-49.4,0-91.3-40.1-91.3-91.4
	c0-48.2,37.9-92.7,90.4-92.7c52.5,0,91,41.7,91,94.2c0,6.8-0.6,9.6-1.2,13.7h-129.2c3.1,20.5,20.2,32.7,40.4,32.7
	c15.8,0,24.2-7.2,31.4-16.2H1269.8z M1224.2,149.7c-2.2-10.3-12.4-29.5-39.1-29.5c-26.7,0-37,19.3-39.1,29.5H1224.2z"/>
<path d="M960,254.9h-50.6V82.1H960V254.9z M993.8,79c19.1,0,33.8,14.9,33.8,34.4c0,19.1-14.7,34.1-33.8,34.1
	c-18.8,0-33.5-14.9-33.5-34.1C960.3,93.9,975,79,993.8,79"/>
<g>
	<path d="M155.4,84.7c-1.1,0-1.9,0.9-1.9,1.9c0,1.1,0.9,1.9,1.9,1.9c1,0,1.9-0.9,1.9-1.9C157.4,85.5,156.5,84.7,155.4,84.7z"/>
	<path d="M125.3,19.8C58.9,19.8,5,73.6,5,140.1c0,66.4,53.9,120.3,120.3,120.3c66.4,0,120.3-53.9,120.3-120.3
		C245.6,73.6,191.8,19.8,125.3,19.8z M172.1,92.7c-0.3,0.2-0.8-0.1-1.2,0c-16,1.6-3,23.6-3,23.6c4.2,9.1,4.9,12.6,4.7,19.5
		c-0.4,17.1-12.3,31.8-26.2,39.8c0,0,0,0,0,0c0,0-8.6,10-8,14.3c0,0,2.6,5.7,2.6,5.7h8.4c2,0,3.6,1.4,3.6,3.2h-3.6h-7.6H137h-3.6
		h-3.6c0-1.8,1.6-3.2,3.6-3.2h1.8c0,0-7.9-3.7-9.5-13.7c-23,7-42.7-3.6-42.7-3.6s-36.1,12.8-41.2,8.9c2.6-2.5,22.9-12.7,26.4-14.7
		c61.4-35,66.4-47.1,66.4-47.1c7.3-9.5,5.6-20.3,7.5-30.6c0,0,1.2-6.7,1.3-6.8c1.2-5.8,6.2-9.8,12.2-9.3c4.5,0.4,8.1,3.2,9.8,7.1
		c0,0-1.5,1.5,0.1,2.2c1.5,0.7,2.1-1.1,2.1-1.1c3.2,0.7,5.7,2.6,6.2,4.8C173.8,92,172.4,92.6,172.1,92.7z"/>
</g>
<g>
	<path d="M327.3,362.5h-9.5v36.2h-11.4v-80.8h20.9c15.1,0,23.7,7.5,23.7,22C351,354.1,341.3,362.5,327.3,362.5z M317.8,327.9v24.5
		h8.9c8.2,0,12.4-4.9,12.4-12.5c0-7.5-4.2-12-12.4-12H317.8z"/>
	<path d="M437.5,372.1h-30.4l-10,26.6h-11.3l30.4-80.8h12l31.8,80.8h-12L437.5,372.1z M410.8,362.3h22.9l-11.6-29.8L410.8,362.3z"/>
	<path d="M538.8,360l20.3,38.6h-12.3l-19-36.5h-9.6v36.5h-11.4v-80.8h20.9c15.1,0,23.7,7.5,23.7,22
		C551.4,349.8,546.7,356.8,538.8,360z M518.3,327.9v24.5h8.9c8.2,0,12.4-4.9,12.4-12.5c0-7.5-4.2-12-12.4-12H518.3z"/>
	<path d="M625.7,328.5v70.2h-11.4v-70.2h-16.6v-10.6h44.6v10.6H625.7z"/>
	<path d="M702.6,337.4v61.3h-11.2v-80.8h11.8l41.1,62v-62h11.2v80.8H744L702.6,337.4z"/>
	<path d="M809,398.7v-80.8h35.1v10.6h-23.7v23.4h23.1v10.5h-23.1v25.7h24.1v10.6H809z"/>
	<path d="M927.7,360l20.3,38.6h-12.3l-19-36.5h-9.6v36.5h-11.4v-80.8h20.9c15.1,0,23.7,7.5,23.7,22
		C940.4,349.8,935.6,356.8,927.7,360z M907.2,327.9v24.5h8.9c8.2,0,12.4-4.9,12.4-12.5c0-7.5-4.2-12-12.4-12H907.2z"/>
	<path d="M1011.2,348.4c4.8,2.2,9.8,3.9,14.9,6.5c8.6,4.2,13.8,10.9,13.8,21.5c0,14-9.9,23.7-24.9,23.7c-18.8,0-25.1-12.1-24.9-25.6
		h11.1c0,8.6,3.7,15.6,13.8,15.6c7.6,0,13.2-4.4,13.2-12.7c0-6.4-3.4-10-8.6-12.6c-5.3-2.8-10.7-4.3-16.1-7.2
		c-7.2-4-11.4-10.5-11.4-20.1c0-11.8,8.8-21.1,22.8-21.1c17,0,23,11,22.7,22.8H1027c-0.2-7.5-4.2-13-12.1-13
		c-7.5,0-11.4,4.7-11.4,11C1003.4,342.6,1006.2,345.9,1011.2,348.4z"/>
	<path d="M1151.9,398.7h-11.4v-36.4h-38.6v36.4h-11.4v-80.8h11.4v33.5h38.6v-33.5h11.4V398.7z"/>
	<path d="M1216.8,398.7h-11.4v-80.8h11.4V398.7z"/>
	<path d="M1291.2,362.5h-9.5v36.2h-11.4v-80.8h20.9c15.1,0,23.7,7.5,23.7,22C1314.9,354.1,1305.2,362.5,1291.2,362.5z M1281.7,327.9
		v24.5h8.9c8.2,0,12.4-4.9,12.4-12.5c0-7.5-4.2-12-12.4-12H1281.7z"/>
	<path d="M1381.2,348.4c4.8,2.2,9.8,3.9,14.9,6.5c8.6,4.2,13.8,10.9,13.8,21.5c0,14-9.9,23.7-24.9,23.7c-18.8,0-25.1-12.1-24.9-25.6
		h11.1c0,8.6,3.7,15.6,13.8,15.6c7.6,0,13.2-4.4,13.2-12.7c0-6.4-3.4-10-8.6-12.6c-5.3-2.8-10.7-4.3-16.1-7.2
		c-7.2-4-11.4-10.5-11.4-20.1c0-11.8,8.8-21.1,22.8-21.1c17,0,23,11,22.7,22.8H1397c-0.2-7.5-4.2-13-12.1-13
		c-7.5,0-11.4,4.7-11.4,11C1373.4,342.6,1376.2,345.9,1381.2,348.4z"/>
</g>
</svg>
