<?xml version="1.0" encoding="utf-8"?>
<!-- Generator: Adobe Illustrator 25.0.0, SVG Export Plug-In . SVG Version: 6.00 Build 0)  -->
<svg version="1.1" id="Layer_1" xmlns="http://www.w3.org/2000/svg" xmlns:xlink="http://www.w3.org/1999/xlink" x="0px" y="0px"
	 viewBox="0 0 1415 288" style="enable-background:new 0 0 1415 288;" xml:space="preserve">
<style type="text/css">
	.st0{fill:none;stroke:#000000;stroke-width:4.6166;stroke-miterlimit:10;}
</style>
<g>
	<path d="M170.8,79.7c-1.2,0-2.2,1-2.2,2.2c0,1.2,1,2.2,2.2,2.2c1.2,0,2.2-1,2.2-2.2C173,80.7,172,79.7,170.8,79.7z"/>
	<path d="M136.6,6C61.2,6,0,67.2,0,142.7c0,75.5,61.2,136.6,136.6,136.6c75.5,0,136.6-61.2,136.6-136.6C273.3,67.2,212.1,6,136.6,6z
		 M189.7,88.9c-0.4,0.2-0.9-0.1-1.3,0c-18.2,1.8-3.4,26.8-3.4,26.8c4.8,10.3,5.5,14.3,5.4,22.2c-0.4,19.4-14,36.1-29.7,45.2
		c0,0,0,0,0,0c0,0-9.8,11.3-9.1,16.3c0,0,2.9,6.4,2.9,6.4h9.6c2.2,0,4.1,1.6,4.1,3.6H164h-8.7h-5.4h-4.1h-4.1c0-2,1.8-3.6,4.1-3.6
		h2.1c0,0-9-4.2-10.7-15.6c-26.2,7.9-48.5-4-48.5-4s-41.1,14.5-46.8,10.2c3-2.9,26-14.4,30-16.7c69.7-39.7,75.5-53.5,75.5-53.5
		c8.3-10.8,6.4-23,8.5-34.7c0,0,1.4-7.7,1.4-7.8c1.4-6.6,7.1-11.2,13.9-10.6c5.1,0.4,9.2,3.7,11.1,8.1c0,0-1.7,1.7,0.1,2.5
		c1.7,0.8,2.3-1.3,2.3-1.3c3.7,0.8,6.4,3,7,5.4C191.7,88.1,190.1,88.7,189.7,88.9z"/>
</g>
<line class="st0" x1="388.1" y1="6" x2="388.1" y2="270.1"/>
<path d="M1330.9,135.3h-31.6c-20.3,0-31.2,15.3-31.2,40.7v91.9h-59.9V135.3h-25.4c-20.3,0-31.2,15.3-31.2,40.7v91.9h-59.9V86.3h59.9
	v27.6c9.8-21.4,23.2-27.6,43.2-27.6h73.4v27.6c9.8-21.4,23.2-27.6,43.2-27.6h19.6V135.3z M1078.5,191.3H953.6
	c3.3,20.3,16,32,37.4,32c16,0,27.2-6.5,30.9-18.2l53,14.9c-13.1,31.6-45.4,50.8-83.9,50.8c-65,0-94.8-50.5-94.8-93.7
	c0-42.5,26.1-93.3,91.1-93.3c69,0,91.9,51.6,91.9,89.7C1079.2,181.8,1078.9,187.3,1078.5,191.3z M1020.4,156
	c-1.5-15.6-12.7-30.1-33-30.1c-18.9,0-30.1,8.4-33.8,30.1H1020.4z M791.6,267.9h52.7L910,86.3h-60.3l-32,105.7L785.1,86.3h-59.9
	L791.6,267.9z M546.1,267.9h59.6V135.3h56.6v132.5h59.2V86.3H605.7V75.1c0-12.3,8.7-20,22.5-20h34.1v-49h-43.9
	c-43.2,0-72.3,26.5-72.3,65.4v14.9h-33.8v49h33.8V267.9z"/>
<path d="M1404.9,236.2c0,21.2-15.9,37-37,37c-21.3,0-37-15.9-37-37c0-21.2,15.8-37,37-37C1389.1,199.2,1404.9,215,1404.9,236.2z
	 M1398.3,236.2c-0.1-17.6-13-30.7-30.4-30.7c-17.5,0-30.5,13.1-30.5,30.7s13,30.7,30.5,30.7C1385.3,266.9,1398.2,253.8,1398.3,236.2
	z M1381,244.1l0.8,9.3h-6.5l-0.8-8.5c-0.2-2.7-2.1-4.5-4.6-4.5h-7.5v13h-6.7v-34.7h14.2c7.3,0,11.5,4.4,11.5,10.7
	c0,3.6-1.8,6-4.7,7.5C1379.2,238.4,1380.8,240.9,1381,244.1z M1362.4,234.7h7.3c3.8,0,5.4-2.5,5.4-5.4c0-2.8-1.6-5.2-5.4-5.2h-7.3
	V234.7z"/>
</svg>
