<?xml version="1.0" encoding="utf-8"?>
<!-- Generator: Adobe Illustrator 25.0.0, SVG Export Plug-In . SVG Version: 6.00 Build 0)  -->
<svg version="1.1" id="Layer_1" xmlns="http://www.w3.org/2000/svg" xmlns:xlink="http://www.w3.org/1999/xlink" x="0px" y="0px"
	 viewBox="0 0 263 215.7" style="enable-background:new 0 0 263 215.7;" xml:space="preserve">
<style type="text/css">
	.st0{fill:#FFFFFF;}
</style>
<path class="st0" d="M121.7,167.1c0.1-0.4,0.2-0.7,0.2-1.1c4.7-23.2-2.8-43.7-9.8-58.7c-0.8-1.7-1.5-3.1-2-4.2
	c-1.7-3.4-3.3-6.5-4.6-9.2L82.5,47.2c0-0.1-0.1-0.1-0.1-0.1l0,0L59.3,0L5,26.6l34.4,70.1C16.4,105.6,0,127.9,0,154.1
	c0,34,27.5,61.5,61.5,61.5c29.3,0,53.7-20.4,60-47.8l0,0C121.6,167.7,121.6,167.4,121.7,167.1z"/>
<path class="st0" d="M261.3,167.1c0.1-0.4,0.2-0.7,0.2-1.1c4.7-23.2-2.8-43.7-9.8-58.7c-0.8-1.7-1.5-3.1-2-4.2
	c-1.7-3.4-3.3-6.5-4.6-9.2l-22.9-46.7c0-0.1-0.1-0.1-0.1-0.1l0,0L198.9,0l-54.2,26.6l34.4,70.1c-23.1,8.9-39.4,31.2-39.4,57.4
	c0,34,27.5,61.5,61.5,61.5c29.3,0,53.7-20.4,60-47.8l0,0C261.2,167.7,261.2,167.4,261.3,167.1z"/>
</svg>
